<?xml version="1.0" encoding="UTF-8"?>
<svg id="Layer_2" data-name="Layer 2" xmlns="http://www.w3.org/2000/svg" viewBox="0 0 501.61 732.36">
  <defs>
    <style>
      .cls-1 {
        fill: #fff;
      }

      .cls-2 {
        stroke: #fff;
        stroke-miterlimit: 10;
        stroke-width: 5.67px;
      }
    </style>
  </defs>
  <g id="Layer_1-2" data-name="Layer 1">
    <g>
      <path d="m161.39,435.62c-14.65-12.94-28.71-25.37-43.55-38.49-4.64,17.36-2.01,34.03-.59,51.48-18.46-20.42-22.97-44.58-23.52-70.21-8.93,16.16-7.99,33.73-7.65,51.1.34,17.51,5.05,34.22,10.51,50.78-25.59-29.14-35.92-63.73-38.26-101.84-2.35-38.2,5.52-73.61,24.92-107.07-3.12-.94-5.92-1.66-8.64-2.63-24.35-8.67-37.19-26.6-42.48-51.34-2.88-13.47-.55-26.37,1.64-39.39,2.58-15.36-.45-29.44-8.46-42.57-8.19-13.42-16.06-26.93-20.28-42.29C-.65,72.49-1.04,51.59,1.48,30.51c.89-7.41,1.7-14.87,3.41-22.11C6.82.21,15.25-2.52,21.47,2.79c36.03,30.75,72.18,61.37,107.84,92.53,14.32,12.52,26,27.5,32.09,45.89,8.77,26.46,4.91,51.31-11.76,73.64-11.58,15.52-23.77,30.61-36.16,45.5-28,33.63-25.07,78.63,6.03,109.72,6.78,6.78,13.94,13.18,21.01,19.66,12.61,11.55,18.05,26.6,21.08,42.84.12.63-.08,1.32-.21,3.04ZM50.07,199.27c.35,18.4,5.35,33.35,18.58,44.73,11.21,9.64,23.5,9.32,33.15-1.71,11.26-12.86,22.17-26.08,32.6-39.63,13.15-17.09,15.2-36.21,7.94-56.3-5.22-14.44-14.32-26.49-25.66-36.47-21.63-19.05-43.83-37.45-65.81-56.11-6.66-5.65-13.25-11.4-20.1-16.81-4.9-3.87-10.67-1.86-10.7,4.07-.05,12.88-.16,25.92,1.63,38.62,2.42,17.18,11.38,31.93,20.57,46.42,9.22,14.53,14.03,30.22,11.18,47.71-1.45,8.91-2.4,17.9-3.4,25.46Z"/>
      <path d="m417.04,271.44c46.3,70.57,24.73,172.35-13.04,209.71,11.76-34.57,15.87-68.66,3.78-103.38-.84,25.81-4.99,50.28-23.4,69.87,1.44-16.72,3.07-33.25-1.5-50.75-14.82,13.32-28.88,25.95-42.95,38.59,2.55-15.11,5.12-30.06,16.32-41.3,9.23-9.27,19.27-17.75,28.25-27.26,16.65-17.63,24.46-38.78,21.95-63.06-1.87-18.14-10.79-33.12-22.36-46.96-11.65-13.94-22.85-28.3-33.5-43.01-11.03-15.22-15.86-32.77-14.43-51.45,1.65-21.59,10.41-40.8,25.69-55.86,17.36-17.11,36.18-32.75,54.55-48.81,20.5-17.93,41.2-35.62,61.82-53.41,8.56-7.38,16.4-5.35,18.43,5.59,5.46,29.31,8.31,58.96-1.79,87.7-4.79,13.63-13.08,26.04-19.8,38.99-5.42,10.45-9.65,21.34-8.82,33.31.51,7.4,2.44,14.69,3.44,22.06,3.9,28.91-10.3,61.06-34.6,72.96-5.71,2.8-12.03,4.33-18.06,6.45Zm64.83-216c0-4.55.13-9.09-.03-13.63-.2-5.76-4.73-8.25-9.83-5.47-1.21.66-2.28,1.6-3.34,2.51-20.99,17.82-42,35.61-62.93,53.5-12.17,10.41-25.11,20.03-34.61,33.23-14.38,19.98-21.6,41.69-10.69,65.16,10.16,21.88,26.73,39.51,43.49,56.62,4.45,4.54,10.62,4.71,16.72,2.82,9.09-2.82,15.58-8.88,21.07-16.35,10.81-14.69,11.63-31.28,7.83-48.01-5.4-23.79-1.09-45.29,12.63-65.03,13.7-19.7,20.96-41.2,19.69-65.35Z"/>
      <path d="m256.67,345.66c25.64,0,51.28.39,76.9-.21,9.43-.22,12.62,3.14,15.72,12.05,10.65,30.5,22.61,60.56,34.78,90.5,3.61,8.88,3.71,15.19-2.42,23.55-52.44,71.52-92.04,149.27-113,236-1.14,4.72-8.06,9.69-13.31,11.38-8.45,2.71-11.15-3.81-12.94-11.3-20.18-84.38-59.26-159.74-111.12-228.65-9.42-12.52-9.79-22.84-3.73-36.84,12.25-28.3,22.75-57.38,33.22-86.41,2.8-7.77,6.61-10.43,14.64-10.31,27.08.4,54.17.15,81.26.15v.09Z"/>
      <path d="m202.46,383.1c0-8.56.37-17.14-.08-25.68-.81-15.5-2.01-31.05-8.64-45.42-7.59-16.45-19.63-26.82-38.7-27.24-10.13-.22-20.26-.73-30.37-1.39-3.37-.22-6.67-1.33-10.01-2.03l-.24-1.81c9.64-3.21,19.16-6.83,28.94-9.54,12.02-3.33,24.34-3.33,35.98,1.34,18.11,7.27,29.86,20.84,33.47,39.96,1.91,10.1,1.93,20.86.88,31.12-1.15,11.32-4.4,22.45-6.96,33.6-.59,2.59-2.08,4.98-3.15,7.46-.38-.13-.75-.25-1.13-.38Z"/>
      <path d="m101.09,53.24c11.38,5.56,23.03,10.63,34.07,16.78,23.87,13.32,43.83,31.01,57.27,55.17,12.54,22.54,11.65,45.33-.04,67.98-1.23,2.38-2.47,4.75-4.75,6.86.12-2.66.28-5.31.35-7.97.92-31.44-9.86-58.68-29.34-82.96-16.21-20.22-36.24-36.24-56.23-52.37-.77-.62-1.59-1.18-2.39-1.77.35-.57.7-1.15,1.05-1.72Z"/>
      <path d="m385.35,281.3c-5.3,1-10.56,2.45-15.9,2.91-8.18.7-16.41,1.03-24.62.98-19.93-.13-32.95,12.88-38.5,27.76-5.74,15.37-6.96,31.55-7.33,47.79-.17,7.67-.03,15.35-1.1,23.44-1.7-4.56-3.6-9.05-5.05-13.68-4.73-15.19-7.98-30.67-7.21-46.69,1.3-27.29,20.07-52.31,49.95-55.63,12.73-1.42,25.23,1.9,37.03,7.27,3.93,1.79,8.16,2.9,12.25,4.32.16.51.33,1.02.49,1.53Z"/>
      <path d="m313.86,201.24c-7.27-11.86-11.97-23.07-13.29-35.39-1.74-16.24,3.06-31.08,10.98-44.93,15.81-27.65,40.1-45.47,68.62-58.19,4.78-2.13,9.65-4.06,14.53-5.96,1.89-.74,3.92-1.12,6.32-.98-7.43,5.84-15,11.51-22.28,17.54-22.31,18.46-42.71,38.5-54.76,65.58-8.02,18.02-11.63,36.74-10.14,56.43.11,1.48.01,2.98.01,5.91Z"/>
      <path d="m295.86,115.59c-4.32,6.62-7.23,11.59-10.75,16.08-.84,1.07-3.86,1.12-5.64.68-18.59-4.65-37.18-5.48-55.81-.48-4.32,1.16-7.61,1.08-9.85-3.64-1.41-2.95-3.77-5.45-5.75-8.11-1.71-2.3-1.28-3.74,1.51-4.59,16.33-4.96,32.97-7.43,50.01-5.33,11.64,1.43,23.21,3.43,36.27,5.39Z"/>
      <path d="m373.87,296.36c-7.73,32.11-34.88,44.03-59.93,32.32,1.83-8.93,3.8-10.82,12.48-11.01,12.86-.28,21.62-6.47,27.21-17.83.74-1.5,2.78-3.19,4.34-3.32,5.17-.42,10.39-.16,15.91-.16Z"/>
      <path d="m126.51,295.94c5.44,0,10.96-.12,16.46.11.97.04,2.29,1.4,2.75,2.46,6.23,14.27,16.77,20.79,32.48,18.81,1.62-.2,4.01,1.35,5.17,2.8,1.69,2.12,2.58,4.87,3.8,7.33-24.47,13.48-52.14,2.34-60.66-31.52Z"/>
      <g>
        <path class="cls-1" d="m233.25,410.69c-3.84,1.93-7.96.9-11.75-2.38-5.04-4.37-4.56-10.53,1.41-13.67,5.34-2.81,10.86-3.36,16.38-.13,7.62,4.46,15.85,5.17,24.26,3.1,3.34-.82,6.36-2.97,9.7-3.75,3.28-.76,6.92-1.24,10.17-.63,5.79,1.09,9.41,5.98,8.5,10.18-1.04,4.84-7.47,7.96-12.94,7.89-3.44-.05-7.32,1.75-10.25,3.79-2.46,1.72-2.1,4.78.09,7.41.61.73.14,2.7-.33,3.9-.42,1.06-1.49,1.91-2.37,2.74-10.93,10.31-13.5,10.11-22.79-2.11-.91-1.2-1.54-3.37-1.12-4.71,2.07-6.59-1.19-11.49-8.97-11.63Z"/>
        <path class="cls-1" d="m188.78,448.1c10.18,6.94,21.08,9.04,32.85,5.46,3.64-1.11,7.13-2.73,10.72-4.01,6.92-2.47,10.81-1.03,15.27,5.52-15.08,17.74-44.57,21.53-58.84-6.97Z"/>
        <path class="cls-1" d="m262.9,455.1c4.88-7.7,8.17-8.69,16.17-5.84,6.01,2.14,12.08,4.45,18.32,5.55,8.48,1.49,16.45-.9,23.92-6.63-13.07,28.08-41.87,24.32-58.41,6.92Z"/>
      </g>
      <line class="cls-2" x1="255.04" y1="556.6" x2="255.04" y2="732.36"/>
      <circle class="cls-1" cx="254.08" cy="547.16" r="9.44"/>
    </g>
  </g>
</svg>